<svg width="87" height="54" viewBox="0 0 87 54" fill="none" xmlns="http://www.w3.org/2000/svg">
<rect width="86.5" height="54" rx="12" fill="white"/>
<path d="M42.1844 35.1446L42.1833 35.1436C39.379 32.6006 37.1117 30.5403 35.5368 28.6135C33.97 26.6967 33.167 25.0038 33.167 23.2083C33.167 20.2759 35.452 18 38.3753 18C40.0336 18 41.6376 18.7758 42.6812 19.9918L43.2503 20.6549L43.8195 19.9918C44.8631 18.7758 46.4671 18 48.1253 18C51.0487 18 53.3337 20.2759 53.3337 23.2083C53.3337 25.0038 52.5306 26.6967 50.9639 28.6135C49.3889 30.5403 47.1217 32.6006 44.3174 35.1436L44.3163 35.1446L43.2503 36.1149L42.1844 35.1446Z" stroke="#FE1E1E" stroke-width="1.5"/>
</svg>
